<?xml version="1.0" encoding="UTF-8" standalone="no"?>
<svg width="128px" height="128px" viewBox="0 0 128 128" version="1.1" xmlns="http://www.w3.org/2000/svg" xmlns:xlink="http://www.w3.org/1999/xlink" xmlns:sketch="http://www.bohemiancoding.com/sketch/ns">
    <!-- Generator: Sketch 3.2.1 (9971) - http://www.bohemiancoding.com/sketch -->
    <title>logo</title>
    <desc>Created with Sketch.</desc>
    <defs>
        <filter x="-50%" y="-50%" width="200%" height="200%" filterUnits="objectBoundingBox" id="filter-1">
            <feOffset dx="0" dy="2" in="SourceAlpha" result="shadowOffsetOuter1"></feOffset>
            <feGaussianBlur stdDeviation="2" in="shadowOffsetOuter1" result="shadowBlurOuter1"></feGaussianBlur>
            <feColorMatrix values="0 0 0 0 0   0 0 0 0 0   0 0 0 0 0  0 0 0 0.14 0" in="shadowBlurOuter1" type="matrix" result="shadowMatrixOuter1"></feColorMatrix>
            <feMerge>
                <feMergeNode in="shadowMatrixOuter1"></feMergeNode>
                <feMergeNode in="SourceGraphic"></feMergeNode>
            </feMerge>
        </filter>
    </defs>
    <g id="Page-1" stroke="none" stroke-width="1" fill="none" fill-rule="evenodd" sketch:type="MSPage">
        <g id="128" sketch:type="MSArtboardGroup">
            <g id="logo" sketch:type="MSLayerGroup">
                <circle id="Oval-7" fill="#4480B5" filter="url(#filter-1)" sketch:type="MSShapeGroup" cx="64" cy="64" r="64"></circle>
                <path d="M64.04,65.32 C67.2293493,65.32 69.6733248,64.6873397 71.372,63.422 C73.0706752,62.1566603 73.92,60.1893467 73.92,57.52 C73.92,54.8159865 73.0706752,52.9093389 71.372,51.8 C69.6733248,50.6906611 67.2293493,50.136 64.04,50.136 L56.864,50.136 L56.864,65.32 L64.04,65.32 Z M74.232,83 L64.56,66.776 L56.864,66.776 L56.864,83 L55.2,83 L55.2,48.68 L64.664,48.68 C66.3626752,48.68 67.8879932,48.844665 69.24,49.174 C70.5920068,49.503335 71.7446619,50.0233298 72.698,50.734 C73.6513381,51.4446702 74.3879974,52.3546611 74.908,53.464 C75.4280026,54.5733389 75.688,55.9253254 75.688,57.52 C75.688,60.2586804 74.8646749,62.3993256 73.218,63.942 C71.5713251,65.4846744 69.3093477,66.3946653 66.432,66.672 L76.208,83 L74.232,83 Z" id="R" fill="#FFFFFF" sketch:type="MSShapeGroup"></path>
            </g>
        </g>
    </g>
</svg>